<?xml version="1.0" standalone="no"?>
<!DOCTYPE svg PUBLIC "-//W3C//DTD SVG 20010904//EN"
 "http://www.w3.org/TR/2001/REC-SVG-20010904/DTD/svg10.dtd">
<svg version="1.0" xmlns="http://www.w3.org/2000/svg"
 width="512.000000pt" height="512.000000pt" viewBox="0 0 512.000000 512.000000"
 preserveAspectRatio="xMidYMid meet">

<g transform="translate(0.000000,512.000000) scale(0.100000,-0.100000)"
fill="#000000" stroke="none">
<path d="M752 5034 c-328 -72 -598 -344 -667 -674 -13 -62 -15 -298 -15 -1803
0 -1890 -3 -1783 59 -1942 101 -262 352 -472 633 -530 64 -13 296 -15 1833
-13 l1760 3 95 33 c133 46 230 104 327 195 131 125 211 261 256 435 l22 87 0
1735 0 1735 -22 88 c-45 174 -124 308 -256 434 -93 88 -196 150 -325 194 l-97
34 -1770 2 c-1472 1 -1781 -1 -1833 -13z m3607 -392 c144 -61 248 -173 298
-322 17 -52 18 -134 21 -1710 2 -1106 -1 -1681 -8 -1734 -29 -223 -203 -398
-425 -426 -53 -7 -635 -10 -1735 -8 l-1655 3 -65 22 c-139 48 -253 155 -312
294 l-23 54 -3 1719 c-2 1553 -1 1725 14 1775 25 89 73 168 136 227 65 59 114
88 198 115 52 17 148 18 1780 16 l1725 -2 54 -23z"/>
<path d="M1605 3616 c-66 -29 -115 -102 -115 -171 0 -75 20 -100 418 -498
l387 -387 -392 -393 c-420 -421 -421 -422 -410 -513 12 -109 117 -181 234
-160 33 7 85 55 436 404 l397 397 398 -397 c350 -349 402 -397 435 -404 117
-21 218 47 233 158 13 92 13 91 -409 516 l-392 392 392 393 c422 424 422 423
409 515 -11 84 -78 150 -160 159 -91 11 -92 10 -513 -410 l-393 -392 -387 387
c-264 263 -400 392 -425 403 -45 18 -103 19 -143 1z"/>
</g>
</svg>
